<svg viewBox="0 0 1024 1024" class="icon" version="1.1" xmlns="http://www.w3.org/2000/svg" fill="#000000" stroke="#000000"><g id="SVGRepo_bgCarrier" stroke-width="0"></g><g id="SVGRepo_tracerCarrier" stroke-linecap="round" stroke-linejoin="round"></g><g id="SVGRepo_iconCarrier"><path d="M725.333333 576c-152.917333 0-277.333333-124.416-277.333333-277.333333S572.416 21.333333 725.333333 21.333333h21.333334v21.333334c0 129.386667 105.28 234.666667 234.666666 234.666666h21.333334v21.333334c0 152.917333-124.416 277.333333-277.333334 277.333333z" fill="#EFD358"></path><path d="M810.666667 789.333333H213.333333c-105.856 0-192-86.122667-192-192s86.144-192 192-192c17.322667 0 34.624 2.453333 51.669334 7.338667A256.128 256.128 0 0 1 490.666667 277.333333a255.786667 255.786667 0 0 1 232.533333 149.290667A189.653333 189.653333 0 0 1 810.666667 405.333333c105.856 0 192 86.122667 192 192s-86.144 192-192 192z" fill="#666666"></path></g></svg>
